<svg width="230" height="230" viewBox="0 0 230 230" fill="none" xmlns="http://www.w3.org/2000/svg">
<g clip-path="url(#clip0_7_3311)">
<rect width="230" height="230" rx="115" fill="white"/>
<g filter="url(#filter0_i_7_3311)">
<circle cx="115" cy="115" r="116" fill="white"/>
</g>
<path d="M48 198C48 180.327 62.3269 166 80 166H150C167.673 166 182 180.327 182 198V230H48V198Z" fill="url(#paint0_linear_7_3311)"/>
<path d="M146 166C146 170.071 145.198 174.102 143.64 177.863C142.082 181.624 139.799 185.042 136.92 187.92C134.042 190.799 130.624 193.082 126.863 194.64C123.102 196.198 119.071 197 115 197C110.929 197 106.898 196.198 103.137 194.64C99.3757 193.082 95.9583 190.799 93.0797 187.92C90.2011 185.042 87.9176 181.624 86.3597 177.863C84.8018 174.102 84 170.071 84 166L115 166H146Z" fill="#004739"/>
<rect x="92" y="109" width="46" height="80" rx="23" fill="url(#paint1_linear_7_3311)"/>
<rect x="79" y="58" width="72" height="108" rx="36" fill="url(#paint2_linear_7_3311)"/>
<path d="M136 130C136 132.758 135.457 135.489 134.401 138.036C133.346 140.584 131.799 142.899 129.849 144.849C127.899 146.799 125.584 148.346 123.036 149.401C120.489 150.457 117.758 151 115 151C112.242 151 109.511 150.457 106.964 149.401C104.416 148.346 102.101 146.799 100.151 144.849C98.2007 142.899 96.6539 140.584 95.5985 138.036C94.5432 135.489 94 132.758 94 130L115 130H136Z" fill="url(#paint3_linear_7_3311)"/>
<path fill-rule="evenodd" clip-rule="evenodd" d="M126.759 147.399C125.591 148.188 124.345 148.86 123.036 149.401C120.489 150.457 117.758 151 115 151C112.242 151 109.512 150.457 106.964 149.401C105.655 148.86 104.409 148.188 103.241 147.399C105.735 143.548 110.07 141 115 141C119.93 141 124.265 143.548 126.759 147.399Z" fill="#EF5350"/>
<path d="M100 130H130C130 133.314 127.314 136 124 136H106C102.686 136 100 133.314 100 130Z" fill="white"/>
<circle cx="132.5" cy="112.5" r="7.5" fill="black"/>
<circle cx="135.5" cy="110.5" r="2.5" fill="white"/>
<circle cx="134" cy="115" r="1" fill="white"/>
<circle cx="97.5" cy="112.5" r="7.5" fill="black"/>
<circle cx="100.5" cy="110.5" r="2.5" fill="white"/>
<circle cx="99" cy="115" r="1" fill="white"/>
<path d="M108.15 37.2106C102.806 37.2106 98.4137 41.444 98.202 46.7886C96.6674 45.3334 94.6566 44.5396 92.5664 44.5131C88.042 44.5131 84.3643 48.1908 84.3643 52.7152C84.3643 54.1969 84.7612 55.6521 85.5285 56.9221C84.0203 55.5991 82.1153 54.8584 80.1045 54.8584C75.5801 54.8584 71.9024 58.5361 71.9024 63.0604C71.9024 64.9125 72.5374 66.7116 73.6751 68.1404C71.6642 69.7543 70.5001 72.1885 70.5001 74.7814C70.5001 79.491 73.5232 83.3011 78.2328 83.3011C78.2328 84.5181 78.4974 85.7087 79.0001 86.82V130C80.6405 129.974 82.0001 128.64 82.0001 127V101C82.0001 97.6663 85.3961 95.0221 88.7299 95.0221V91.8206C92.2489 91.3443 95.1328 88.7515 95.9265 85.2854C96.9584 85.7088 98.0697 85.9469 99.2074 85.9469C103.256 85.9469 106.722 83.1159 107.568 79.2265C109.288 81.8459 112.225 83.4334 115.347 83.4334C118.496 83.4334 121.406 81.8459 123.126 79.2C123.972 83.0894 127.438 85.9204 131.487 85.9204C132.598 85.9204 133.709 85.7087 134.767 85.259C135.588 88.725 138.445 91.318 141.964 91.7942V94.9956C145.298 94.9956 147.97 97.6679 147.97 101.002V126.984C147.97 128.624 149.386 129.974 151 130V86.8218C151.503 85.7106 151.674 84.4917 151.674 83.2746C156.384 83.2746 160.194 79.4645 160.194 74.7549C160.194 72.162 159.03 69.728 157.019 68.114C158.157 66.6588 158.792 64.886 158.792 63.034C158.792 58.5096 155.114 54.8319 150.589 54.8319C148.579 54.8319 146.674 55.5727 145.166 56.8956C145.933 55.6256 146.33 54.1704 146.33 52.6887C146.33 48.1643 142.652 44.4866 138.128 44.4866C136.037 44.4866 134 45.3069 132.492 46.7621C132.28 41.4175 127.888 37.1841 122.544 37.1841C119.818 37.1841 117.226 38.2954 115.347 40.2798C113.468 38.3483 110.876 37.2106 108.15 37.2106Z" fill="black"/>
<path d="M75 106C75 103.791 76.7909 102 79 102V123C76.7909 123 75 121.209 75 119V106Z" fill="#4E342E"/>
<path d="M155 106C155 103.791 153.209 102 151 102V123C153.209 123 155 121.209 155 119V106Z" fill="#4E342E"/>
</g>
<defs>
<filter id="filter0_i_7_3311" x="-1" y="-17" width="232" height="248" filterUnits="userSpaceOnUse" color-interpolation-filters="sRGB">
<feFlood flood-opacity="0" result="BackgroundImageFix"/>
<feBlend mode="normal" in="SourceGraphic" in2="BackgroundImageFix" result="shape"/>
<feColorMatrix in="SourceAlpha" type="matrix" values="0 0 0 0 0 0 0 0 0 0 0 0 0 0 0 0 0 0 127 0" result="hardAlpha"/>
<feOffset dy="-16"/>
<feGaussianBlur stdDeviation="24"/>
<feComposite in2="hardAlpha" operator="arithmetic" k2="-1" k3="1"/>
<feColorMatrix type="matrix" values="0 0 0 0 0.26481 0 0 0 0 0.12 0 0 0 0 1 0 0 0 0.56 0"/>
<feBlend mode="normal" in2="shape" result="effect1_innerShadow_7_3311"/>
</filter>
<linearGradient id="paint0_linear_7_3311" x1="114.993" y1="165.986" x2="114.993" y2="182.911" gradientUnits="userSpaceOnUse">
<stop stop-color="#00AA88"/>
<stop offset="1" stop-color="#005544"/>
</linearGradient>
<linearGradient id="paint1_linear_7_3311" x1="115.007" y1="150" x2="115.007" y2="189.443" gradientUnits="userSpaceOnUse">
<stop stop-color="#4E342E"/>
<stop offset="1" stop-color="#80564C"/>
</linearGradient>
<linearGradient id="paint2_linear_7_3311" x1="114.993" y1="130.127" x2="115" y2="94.5" gradientUnits="userSpaceOnUse">
<stop stop-color="#6D4C41"/>
<stop offset="1" stop-color="#3E2723"/>
</linearGradient>
<linearGradient id="paint3_linear_7_3311" x1="116" y1="130" x2="116" y2="140" gradientUnits="userSpaceOnUse">
<stop stop-color="#33221E"/>
<stop offset="1" stop-color="#50352F"/>
</linearGradient>
<clipPath id="clip0_7_3311">
<rect width="230" height="230" rx="115" fill="white"/>
</clipPath>
</defs>
</svg>
