<?xml version="1.0" encoding="utf-8"?>
<!DOCTYPE svg PUBLIC "-//W3C//DTD SVG 1.1//EN" "http://www.w3.org/Graphics/SVG/1.1/DTD/svg11.dtd">
<svg version="1.1" xmlns="http://www.w3.org/2000/svg" xmlns:xlink="http://www.w3.org/1999/xlink" x="0px" y="0px" viewBox="0 0 1000 1000" enable-background="new 0 0 1000 1000" xml:space="preserve">
<metadata> Svg Vector Icons : http://www.onlinewebfonts.com/icon </metadata>
<g><path d="M479.6,214h117.9v24.2H479.6V214z"/><path d="M556.6,667.3h59v72.9h-59V667.3z"/><path d="M332.9,366.5h117.9v24.2H332.9V366.5z"/><path d="M300.9,415.2v325.1h154.3V415.2H308.4H300.9z M325.7,462.6h104.5v24.5H325.7V462.6z M325.7,529.8h104.5v24.5H325.7V529.8z M325.7,599.1h104.5v24.5H325.7V599.1z M325.7,668.4h104.5v24.5H325.7V668.4z"/><path d="M479.6,262.7v127.9v349.6h52.4v-97.4h108v97.4h59.1V262.7h-77.1H479.6z M672.9,515h-167v-24.5h167V515z M672.9,434.4h-167v-24.5h167V434.4z M672.9,353.8h-167v-24.5h167V353.8z"/><path d="M500,10C229.4,10,10,229.4,10,500c0,270.6,219.4,490,490,490s490-219.4,490-490C990,229.4,770.6,10,500,10z M826.7,764.7h-103h-83.6h-108h-52.4h-24.5H276.4h-103v-24.5h103V390.7h32V342h146.7v-79.3v-24.5v-48.7h166.9v48.7h101.6v502h103V764.7L826.7,764.7z"/></g>
</svg>