<?xml version="1.0" encoding="utf-8"?>
<!DOCTYPE svg PUBLIC "-//W3C//DTD SVG 1.1//EN" "http://www.w3.org/Graphics/SVG/1.1/DTD/svg11.dtd">
<svg version="1.1" xmlns="http://www.w3.org/2000/svg" xmlns:xlink="http://www.w3.org/1999/xlink" x="0px" y="0px" viewBox="0 0 1000 1000" enable-background="new 0 0 1000 1000" xml:space="preserve">
<metadata> Svg Vector Icons : http://www.onlinewebfonts.com/icon </metadata>
<g><g transform="translate(0.000000,511.000000) scale(0.100000,-0.100000)"><path d="M2168.9,4111.9c-328.1-90.9-579.1-349.9-658.2-683.9c-21.7-98.8-29.6-266.8-29.6-772.9v-648.3h-203.6c-375.6,0-652.3-106.7-883.5-336c-146.3-146.3-241.1-320.2-276.7-504c-15.8-85-19.8-707.6-15.8-2194l5.9-2075.4l45.5-112.7c106.7-262.9,292.5-462.5,551.5-589c253-124.5,87-120.6,3589.5-114.6l3186.3,5.9l130.4,51.4c349.9,136.4,581.1,355.8,693.8,662.2c39.5,106.7,43.5,160.1,51.4,678c5.9,462.5,2,557.4-19.8,543.6c-13.8-7.9-130.4-100.8-257-203.6l-233.2-187.8v-298.5c-2-191.7-9.9-322.2-27.7-369.6c-45.5-124.5-142.3-227.3-284.6-296.5l-132.4-65.2l-2749.5-5.9l-2751.4-4l43.5,122.5l41.5,124.5L1995,89.5c11.9,3589.5,0,3295,132.4,3427.5c114.6,116.6-43.5,110.7,2791,110.7c1790.8,0,2626.9-5.9,2664.5-21.7c67.2-25.7,175.9-126.5,219.4-205.6c29.6-53.4,33.6-237.2,43.5-1994.4l9.9-1933.1l253,201.6l251,203.6v1711.8c0,1883.7,2,1850.1-122.6,2081.4c-110.7,207.5-357.8,395.3-591,448.7C7505.8,4153.4,2287.5,4145.5,2168.9,4111.9z M1477.1-805.9l-5.9-2298.8l-59.3-118.6c-83-162.1-160.1-203.6-318.2-170C878.2-3347.9,735.9-3249,658.8-3083l-47.4,98.8V-970c0,1524,5.9,2033.9,23.7,2095.2c33.6,114.6,195.7,270.8,332.1,324.2c85,31.6,154.2,41.5,312.3,41.5l201.6,2L1477.1-805.9z"/><path d="M4092.2,2933.8c-205.6-39.5-383.5-187.8-444.7-367.7c-96.9-284.6,19.8-571.2,292.5-711.6c85-45.5,126.5-53.4,268.8-55.3c144.3,0,183.8,7.9,280.7,55.3c355.8,173.9,438.8,608.8,175.9,907.3c-71.2,81-199.6,148.2-338,173.9C4210.8,2957.5,4212.8,2957.5,4092.2,2933.8z M4339.3,2587.9c69.2-45.5,106.7-128.5,106.7-231.3c0-104.8-53.4-183.8-152.2-223.4c-241.1-100.8-426.9,262.9-221.4,434.9C4143.6,2629.4,4262.2,2637.3,4339.3,2587.9z"/><path d="M6412.7,2900.2c-172-81-260.9-264.9-209.5-425c41.5-124.5,146.3-189.8,397.3-251c185.8-43.5,231.3-69.2,193.7-114.6c-37.5-45.5-241.2-21.7-369.6,45.5c-106.7,53.4-108.7,53.4-138.4,13.8c-17.8-21.7-61.3-75.1-96.8-118.6l-65.2-81l90.9-51.4c138.4-83,260.9-112.7,454.6-116.6c130.4-2,203.6,7.9,270.8,33.6c221.4,85,312.3,340,185.8,519.9c-39.5,57.3-181.8,120.6-343.9,156.2c-170,39.5-221.4,61.3-221.4,98.8c0,67.2,172,61.3,330.1-13.8c47.4-21.7,90.9-35.6,96.8-31.6c5.9,5.9,45.5,57.3,87,114.6c90.9,122.6,87,132.4-65.2,199.6C6865.4,2941.7,6529.4,2953.6,6412.7,2900.2z"/><path d="M2825.2,2748v-168h138.4h138.4v-205.6c0-162.1-5.9-213.5-31.6-237.2c-41.5-43.5-110.7-39.5-173.9,9.9l-53.4,41.5l-106.7-92.9c-59.3-51.4-108.7-98.8-108.7-108.7c0-7.9,33.6-45.5,77.1-83c132.4-120.6,375.6-146.3,549.5-59.3c183.8,94.9,203.6,162.1,203.6,666.1V2916h-316.3h-316.3V2748z"/><path d="M4979.7,2360.6v-555.4l391.4,7.9c373.6,5.9,393.3,7.9,476.3,55.3c122.6,69.2,168,138.4,168,251c0,116.6-45.5,189.7-144.3,237.2l-73.1,35.6l59.3,39.5c130.5,87,160.1,257,67.2,375.6c-75.1,96.9-138.4,108.7-559.4,108.7h-385.4V2360.6z M5608.3,2582c9.9-69.2-43.5-100.8-168-100.8h-104.8v79.1v81l134.4-5.9C5594.4,2629.4,5602.3,2625.5,5608.3,2582z M5620.1,2232.1c79.1-77.1-2-146.3-170-146.3h-114.6v88.9v88.9H5462C5550.9,2263.8,5598.4,2253.9,5620.1,2232.1z"/><path d="M2443.7,965.1c-7.9-5.9-13.8-100.8-13.8-207.5V563.9l707.6,4l705.7,5.9v197.7v197.7l-693.8,5.9C2767.9,977,2451.6,973,2443.7,965.1z"/><path d="M4202.9,965.1c-7.9-5.9-13.8-100.8-13.8-207.5V563.9l707.6,4l705.7,5.9v197.7v197.7l-693.8,5.9C4527.1,977,4210.8,973,4202.9,965.1z"/><path d="M5958.1,955.2c-5.9-13.8-7.9-697.7-5.9-1520l5.9-1492.3l701.7,565.3l701.7,565.3V22.3v946.8l-697.7,5.9C6116.3,979,5964.1,975,5958.1,955.2z"/><path d="M9225.5,241.7C8980.4,51.9,6649.9-1833.8,6644-1849.6c-4-7.9,118.6-172,272.8-361.7l280.7-345.9l498.1,399.3c272.8,221.4,861.8,695.8,1308.5,1057.5c448.7,359.7,832.2,678,855.9,707.6c45.5,59.3,53.3,146.3,17.8,211.5c-35.6,69.2-328.1,425-375.6,456.6C9427.1,328.7,9322.3,314.8,9225.5,241.7z"/><path d="M2433.8-369.1l5.9-203.6h701.7h701.7l5.9,203.6l5.9,201.6h-713.6h-713.6L2433.8-369.1z"/><path d="M4193-369.1l5.9-203.6h701.7h701.7l5.9,203.6l5.9,201.6h-713.6h-713.6L4193-369.1z"/><path d="M2443.7-1308c-7.9-5.9-13.8-100.8-13.8-207.5v-193.7l707.6,4l705.7,5.9v197.7v197.7l-693.8,5.9C2767.9-1296.1,2451.6-1300.1,2443.7-1308z"/><path d="M4202.9-1308c-7.9-5.9-13.8-100.8-13.8-207.5v-193.7h711.6h713.6l-5.9,203.6l-5.9,201.6l-693.8,5.9C4527.1-1296.1,4210.8-1300.1,4202.9-1308z"/><path d="M6393-2059.1c-79.1-108.7-229.3-407.2-274.8-545.5c-45.5-134.4-41.5-245.1,5.9-270.8c67.2-35.6,284.6-21.7,498.1,31.6c213.5,53.4,397.3,126.5,421,164.1c13.8,21.7-531.7,713.5-563.3,713.5C6470.1-1966.2,6430.5-2007.7,6393-2059.1z"/><path d="M2433.8-2642.2l5.9-203.6h701.7h701.7l5.9,203.6l5.9,201.6h-713.6h-713.6L2433.8-2642.2z"/><path d="M4193-2642.2l5.9-203.6h701.7h701.7l5.9,203.6l5.9,201.6h-713.6h-713.6L4193-2642.2z"/></g></g>
</svg>